<svg width="31" height="29" viewBox="0 0 31 29" fill="none" xmlns="http://www.w3.org/2000/svg">
<path d="M22.524 0C23.0971 0.105002 23.6761 0.171319 24.2375 0.32606C26.4949 0.9616 28.1734 2.28242 29.267 4.25535C29.922 5.43801 30.191 6.70356 30.1852 8.03544C30.1793 12.1416 30.1852 16.2477 30.1852 20.3539C30.1852 22.15 29.653 23.7913 28.4833 25.2116C26.8049 27.2398 24.5825 28.2677 21.8631 28.2898C19.477 28.3119 17.0909 28.2953 14.699 28.2953C12.7106 28.2953 10.7222 28.2953 8.73377 28.2953C5.7921 28.2898 3.43525 27.1845 1.71587 24.9187C0.704117 23.5868 0.242105 22.0726 0.242105 20.4368C0.236256 16.2256 0.230408 12.02 0.242105 7.80885C0.253801 4.38799 2.55217 1.42029 5.99679 0.381324C6.61086 0.198952 7.26586 0.127108 7.90332 0C12.7749 0 17.6524 0 22.524 0ZM15.2136 25.7808C15.2136 25.7863 15.2136 25.7863 15.2136 25.7808C17.2781 25.7863 19.3425 25.7863 21.4128 25.7863C22.1848 25.7863 22.9509 25.7532 23.6878 25.51C26.0505 24.7363 27.5125 22.791 27.5242 20.3649C27.5359 16.2311 27.5301 12.0974 27.5301 7.96359C27.5301 6.96883 27.3195 6.01829 26.7698 5.16722C25.6235 3.37665 23.9158 2.51453 21.7169 2.509C17.3716 2.50347 13.0264 2.509 8.68114 2.509C7.8156 2.509 6.9676 2.63058 6.18393 2.99533C4.02008 4.00667 2.91476 5.67012 2.90306 7.94149C2.87967 12.0863 2.89721 16.2311 2.90306 20.3704C2.90306 21.3652 3.11945 22.3102 3.68088 23.1613C4.81544 24.8966 6.48219 25.7698 8.6402 25.7808C10.8274 25.7919 13.0205 25.7808 15.2136 25.7808Z" fill="white"/>
<path d="M22.9341 14.1643C22.8932 18.2151 19.3959 21.4813 15.1618 21.437C10.9218 21.3928 7.47128 18.0936 7.50052 14.109C7.52976 10.1023 11.027 6.8141 15.2319 6.85279C19.5421 6.89147 22.9107 10.1521 22.9341 14.1643ZM15.1852 18.9225C17.9865 18.9391 20.2673 16.8004 20.2673 14.1532C20.2732 11.5226 18.0216 9.39495 15.2144 9.37837C12.4599 9.36179 10.1849 11.495 10.1615 14.1256C10.1381 16.7451 12.3955 18.9059 15.1852 18.9225Z" fill="white"/>
<path d="M23.2265 4.73616C24.285 4.70828 25.1681 5.52794 25.2032 6.57621C25.2324 7.55199 24.3494 8.41625 23.3084 8.43855C22.2265 8.46086 21.3317 7.65235 21.3024 6.62639C21.279 5.61158 22.1387 4.76404 23.2265 4.73616Z" fill="white"/>
</svg>
